{
  "accessors": [
    {
      "bufferView": 2,
      "componentType": 5126,
      "count": 3628,
      "max": [
        19.278230667114258,
        1.585824966430664,
        3.266791343688965
      ],
      "min": [
        -2.355541229248047,
        -1.5852402448654175,
        -9.148931503295898
      ],
      "type": "VEC3"
    },
    {
      "bufferView": 2,
      "byteOffset": 43536,
      "componentType": 5126,
      "count": 3628,
      "max": [
        1.0,
        1.0,
        1.0
      ],
      "min": [
        -1.0,
        -1.0,
        -1.0
      ],
      "type": "VEC3"
    },
    {
      "bufferView": 3,
      "componentType": 5126,
      "count": 3628,
      "max": [
        1.0,
        1.0,
        1.0,
        1.0
      ],
      "min": [
        -1.0,
        -1.0,
        -1.0,
        -1.0
      ],
      "type": "VEC4"
    },
    {
      "bufferView": 1,
      "componentType": 5126,
      "count": 3628,
      "max": [
        0.999500036239624,
        0.9986085295677185
      ],
      "min": [
        0.0005000000237487257,
        0.0005000000237487257
      ],
      "type": "VEC2"
    },
    {
      "bufferView": 0,
      "componentType": 5125,
      "count": 12138,
      "type": "SCALAR"
    },
    {
      "bufferView": 2,
      "byteOffset": 87072,
      "componentType": 5126,
      "count": 72,
      "max": [
        16.71753692626953,
        0.3472512662410736,
        3.1657609939575195
      ],
      "min": [
        -0.4648782014846802,
        -0.34646740555763245,
        3.0383877754211426
      ],
      "type": "VEC3"
    },
    {
      "bufferView": 2,
      "byteOffset": 87936,
      "componentType": 5126,
      "count": 72,
      "max": [
        1.0,
        1.0,
        1.0
      ],
      "min": [
        -0.11295897513628006,
        -1.0,
        -1.0
      ],
      "type": "VEC3"
    },
    {
      "bufferView": 1,
      "byteOffset": 29024,
      "componentType": 5126,
      "count": 72,
      "max": [
        0.7876322865486145,
        0.9640069007873535
      ],
      "min": [
        0.23125988245010376,
        0.03412148356437683
      ],
      "type": "VEC2"
    },
    {
      "bufferView": 0,
      "byteOffset": 48552,
      "componentType": 5125,
      "count": 198,
      "type": "SCALAR"
    },
    {
      "bufferView": 2,
      "byteOffset": 88800,
      "componentType": 5126,
      "count": 281,
      "max": [
        3.820467710494995,
        1.174999475479126,
        5.1678147315979
      ],
      "min": [
        -2.1361355781555176,
        -1.1749995946884155,
        -5.9708757400512695
      ],
      "type": "VEC3"
    },
    {
      "bufferView": 2,
      "byteOffset": 92172,
      "componentType": 5126,
      "count": 281,
      "max": [
        1.0,
        1.0,
        1.0
      ],
      "min": [
        -1.0,
        -1.0,
        -1.0
      ],
      "type": "VEC3"
    },
    {
      "bufferView": 3,
      "byteOffset": 58048,
      "componentType": 5126,
      "count": 281,
      "max": [
        1.0,
        1.0,
        0.9996408224105835,
        1.0
      ],
      "min": [
        -0.9971411228179932,
        -1.0,
        -0.9999963641166687,
        1.0
      ],
      "type": "VEC4"
    },
    {
      "bufferView": 1,
      "byteOffset": 29600,
      "componentType": 5126,
      "count": 281,
      "max": [
        0.9962218999862671,
        0.8198009133338928
      ],
      "min": [
        0.0005000000237487257,
        0.04066111519932747
      ],
      "type": "VEC2"
    },
    {
      "bufferView": 0,
      "byteOffset": 49344,
      "componentType": 5125,
      "count": 876,
      "type": "SCALAR"
    }
  ],
  "asset": {
    "extras": {
      "author": "Eugen Vahrushin (https://sketchfab.com/eugen_vahrushin)",
      "license": "CC-BY-4.0 (http://creativecommons.org/licenses/by/4.0/)",
      "source": "https://sketchfab.com/3d-models/sci-fi-pistol-c23394d709d14772adf355da84408edc",
      "title": "Sci-fi pistol"
    },
    "generator": "Sketchfab-12.66.0",
    "version": "2.0"
  },
  "bufferViews": [
    {
      "buffer": 0,
      "byteLength": 52848,
      "name": "floatBufferViews",
      "target": 34963
    },
    {
      "buffer": 0,
      "byteLength": 31848,
      "byteOffset": 52848,
      "byteStride": 8,
      "name": "floatBufferViews",
      "target": 34962
    },
    {
      "buffer": 0,
      "byteLength": 95544,
      "byteOffset": 84696,
      "byteStride": 12,
      "name": "floatBufferViews",
      "target": 34962
    },
    {
      "buffer": 0,
      "byteLength": 62544,
      "byteOffset": 180240,
      "byteStride": 16,
      "name": "floatBufferViews",
      "target": 34962
    }
  ],
  "buffers": [
    {
      "byteLength": 242784,
      "uri": "scene.bin"
    }
  ],
  "extensionsUsed": [
    "KHR_materials_clearcoat"
  ],
  "images": [
    {
      "uri": "textures/Pistol_baseColor.png"
    },
    {
      "uri": "textures/Pistol_metallicRoughness.png"
    },
    {
      "uri": "textures/Pistol_normal.png"
    },
    {
      "uri": "textures/Pistol_clearcoat.png"
    }
  ],
  "materials": [
    {
      "doubleSided": true,
      "extensions": {
        "KHR_materials_clearcoat": {
          "clearcoatFactor": 0.4773246951219512,
          "clearcoatNormalTexture": {
            "index": 2
          },
          "clearcoatRoughnessFactor": 0.3004954268292683,
          "clearcoatRoughnessTexture": {
            "index": 1
          },
          "clearcoatTexture": {
            "index": 3
          }
        }
      },
      "name": "Pistol",
      "normalTexture": {
        "index": 2
      },
      "occlusionTexture": {
        "index": 1
      },
      "pbrMetallicRoughness": {
        "baseColorTexture": {
          "index": 0
        },
        "metallicRoughnessTexture": {
          "index": 1
        }
      }
    },
    {
      "doubleSided": true,
      "emissiveFactor": [
        0.0,
        1.0,
        0.02909523281884062
      ],
      "name": "Sight",
      "pbrMetallicRoughness": {
        "baseColorFactor": [
          0.1450979999999999,
          0.8862750000000001,
          0.0,
          1.0
        ]
      }
    }
  ],
  "meshes": [
    {
      "name": "Body_Pistol_0",
      "primitives": [
        {
          "attributes": {
            "NORMAL": 1,
            "POSITION": 0,
            "TANGENT": 2,
            "TEXCOORD_0": 3
          },
          "indices": 4,
          "material": 0,
          "mode": 4
        }
      ]
    },
    {
      "name": "Body_Sight_0",
      "primitives": [
        {
          "attributes": {
            "NORMAL": 6,
            "POSITION": 5,
            "TEXCOORD_0": 7
          },
          "indices": 8,
          "material": 1,
          "mode": 4
        }
      ]
    },
    {
      "name": "Magazine_Pistol_0",
      "primitives": [
        {
          "attributes": {
            "NORMAL": 10,
            "POSITION": 9,
            "TANGENT": 11,
            "TEXCOORD_0": 12
          },
          "indices": 13,
          "material": 0,
          "mode": 4
        }
      ]
    }
  ],
  "nodes": [
    {
      "children": [
        1
      ],
      "matrix": [
        1.0,
        0.0,
        0.0,
        0.0,
        0.0,
        2.220446049250313e-16,
        -1.0,
        0.0,
        0.0,
        1.0,
        2.220446049250313e-16,
        0.0,
        0.0,
        0.0,
        0.0,
        1.0
      ],
      "name": "Sketchfab_model"
    },
    {
      "children": [
        2
      ],
      "matrix": [
        1.0,
        0.0,
        0.0,
        0.0,
        0.0,
        0.0,
        1.0,
        0.0,
        0.0,
        -1.0,
        0.0,
        0.0,
        0.0,
        0.0,
        0.0,
        1.0
      ],
      "name": "d45df317ef7c4074ac7bd92e3a6af6e0.fbx"
    },
    {
      "children": [
        3,
        7
      ],
      "name": "RootNode"
    },
    {
      "children": [
        4
      ],
      "matrix": [
        1.0,
        0.0,
        0.0,
        0.0,
        0.0,
        2.220446049250313e-16,
        -1.0,
        0.0,
        0.0,
        1.0,
        2.220446049250313e-16,
        0.0,
        0.0,
        0.0,
        0.0,
        1.0
      ],
      "name": "Body"
    },
    {
      "children": [
        5,
        6
      ],
      "matrix": [
        1.0,
        0.0,
        -0.0,
        0.0,
        0.0,
        1.0,
        0.0,
        0.0,
        0.0,
        0.0,
        1.0,
        0.0,
        -12.216269493103027,
        2.9101476669311523,
        1.4547810554504395,
        1.0
      ],
      "name": "Object_4"
    },
    {
      "mesh": 0,
      "name": "Body_Pistol_0"
    },
    {
      "mesh": 1,
      "name": "Body_Sight_0"
    },
    {
      "children": [
        8
      ],
      "matrix": [
        1.0,
        0.0,
        0.0,
        0.0,
        0.0,
        2.220446049250313e-16,
        -1.0,
        0.0,
        0.0,
        1.0,
        2.220446049250313e-16,
        0.0,
        0.0,
        0.0,
        0.0,
        1.0
      ],
      "name": "Magazine"
    },
    {
      "children": [
        9
      ],
      "matrix": [
        1.0,
        0.0,
        -0.0,
        0.0,
        0.0,
        1.0,
        0.0,
        0.0,
        0.0,
        0.0,
        1.0,
        0.0,
        2.9124629497528076,
        2.910148859024048,
        -2.535728931427002,
        1.0
      ],
      "name": "Object_8"
    },
    {
      "mesh": 2,
      "name": "Magazine_Pistol_0"
    }
  ],
  "samplers": [
    {
      "magFilter": 9729,
      "minFilter": 9987,
      "wrapS": 10497,
      "wrapT": 10497
    }
  ],
  "scene": 0,
  "scenes": [
    {
      "name": "Sketchfab_Scene",
      "nodes": [
        0
      ]
    }
  ],
  "textures": [
    {
      "sampler": 0,
      "source": 0
    },
    {
      "sampler": 0,
      "source": 1
    },
    {
      "sampler": 0,
      "source": 2
    },
    {
      "sampler": 0,
      "source": 3
    }
  ]
}
