{
  "accessors": [
    {
      "bufferView": 2,
      "componentType": 5126,
      "count": 6338,
      "max": [
        12.808069229125977,
        3.94766902923584,
        42.54568862915039
      ],
      "min": [
        -76.69603729248047,
        -1.9991509914398193,
        33.090087890625
      ],
      "type": "VEC3"
    },
    {
      "bufferView": 2,
      "byteOffset": 76056,
      "componentType": 5126,
      "count": 6338,
      "max": [
        1.0,
        1.0,
        1.0
      ],
      "min": [
        -1.0,
        -1.0,
        -1.0
      ],
      "type": "VEC3"
    },
    {
      "bufferView": 3,
      "componentType": 5126,
      "count": 6338,
      "max": [
        1.0,
        1.0,
        0.9999995827674866,
        1.0
      ],
      "min": [
        -1.0,
        -1.0,
        -0.9999632835388184,
        -1.0
      ],
      "type": "VEC4"
    },
    {
      "bufferView": 1,
      "componentType": 5126,
      "count": 6338,
      "max": [
        0.9536889791488647,
        0.9627360105514526
      ],
      "min": [
        0.0002589999930933118,
        0.013705000281333923
      ],
      "type": "VEC2"
    },
    {
      "bufferView": 0,
      "componentType": 5125,
      "count": 32520,
      "type": "SCALAR"
    },
    {
      "bufferView": 2,
      "byteOffset": 152112,
      "componentType": 5126,
      "count": 14977,
      "max": [
        -4.429150104522705,
        1.4279299974441528,
        37.347503662109375
      ],
      "min": [
        -35.355918884277344,
        -1.4454259872436523,
        31.710651397705078
      ],
      "type": "VEC3"
    },
    {
      "bufferView": 2,
      "byteOffset": 331836,
      "componentType": 5126,
      "count": 14977,
      "max": [
        1.0,
        1.0,
        1.0
      ],
      "min": [
        -1.0,
        -1.0,
        -1.0
      ],
      "type": "VEC3"
    },
    {
      "bufferView": 3,
      "byteOffset": 101408,
      "componentType": 5126,
      "count": 14977,
      "max": [
        1.0,
        0.9999999403953552,
        1.0,
        1.0
      ],
      "min": [
        -1.0,
        -1.0,
        -1.0,
        -1.0
      ],
      "type": "VEC4"
    },
    {
      "bufferView": 1,
      "byteOffset": 50704,
      "componentType": 5126,
      "count": 14977,
      "max": [
        0.9988669753074646,
        0.998869001865387
      ],
      "min": [
        0.006982000079005957,
        0.0002589999930933118
      ],
      "type": "VEC2"
    },
    {
      "bufferView": 0,
      "byteOffset": 130080,
      "componentType": 5125,
      "count": 76596,
      "type": "SCALAR"
    },
    {
      "bufferView": 2,
      "byteOffset": 511560,
      "componentType": 5126,
      "count": 9590,
      "max": [
        41.47122573852539,
        2.022049903869629,
        44.7847785949707
      ],
      "min": [
        -81.02434539794922,
        -2.0301010608673096,
        24.36035919189453
      ],
      "type": "VEC3"
    },
    {
      "bufferView": 2,
      "byteOffset": 626640,
      "componentType": 5126,
      "count": 9590,
      "max": [
        1.0,
        1.0,
        1.0
      ],
      "min": [
        -1.0,
        -1.0,
        -1.0
      ],
      "type": "VEC3"
    },
    {
      "bufferView": 3,
      "byteOffset": 341040,
      "componentType": 5126,
      "count": 9590,
      "max": [
        1.0,
        1.0,
        1.0,
        1.0
      ],
      "min": [
        -1.0,
        -1.0,
        -0.9999999403953552,
        -1.0
      ],
      "type": "VEC4"
    },
    {
      "bufferView": 1,
      "byteOffset": 170520,
      "componentType": 5126,
      "count": 9590,
      "max": [
        0.9988110065460205,
        0.998894989490509
      ],
      "min": [
        0.0002589999930933118,
        0.0002589999930933118
      ],
      "type": "VEC2"
    },
    {
      "bufferView": 0,
      "byteOffset": 436464,
      "componentType": 5125,
      "count": 48024,
      "type": "SCALAR"
    },
    {
      "bufferView": 2,
      "byteOffset": 741720,
      "componentType": 5126,
      "count": 5576,
      "max": [
        16.31050682067871,
        2.4618330001831055,
        42.95476150512695
      ],
      "min": [
        -19.846330642700195,
        -2.4698829650878906,
        26.569908142089844
      ],
      "type": "VEC3"
    },
    {
      "bufferView": 2,
      "byteOffset": 808632,
      "componentType": 5126,
      "count": 5576,
      "max": [
        1.0,
        1.0,
        1.0
      ],
      "min": [
        -1.0,
        -1.0,
        -1.0
      ],
      "type": "VEC3"
    },
    {
      "bufferView": 3,
      "byteOffset": 494480,
      "componentType": 5126,
      "count": 5576,
      "max": [
        1.0,
        1.0,
        0.9999992847442627,
        1.0
      ],
      "min": [
        -1.0,
        -1.0,
        -0.9999991059303284,
        -1.0
      ],
      "type": "VEC4"
    },
    {
      "bufferView": 1,
      "byteOffset": 247240,
      "componentType": 5126,
      "count": 5576,
      "max": [
        0.9988719820976257,
        0.9988309741020203
      ],
      "min": [
        0.0002589999930933118,
        0.0002589999930933118
      ],
      "type": "VEC2"
    },
    {
      "bufferView": 0,
      "byteOffset": 628560,
      "componentType": 5125,
      "count": 25959,
      "type": "SCALAR"
    }
  ],
  "asset": {
    "extras": {
      "author": "V-Enterprises (https://sketchfab.com/V-Enterprises)",
      "license": "CC-BY-4.0 (http://creativecommons.org/licenses/by/4.0/)",
      "source": "https://sketchfab.com/3d-models/sniper-rifle-hdr-cod-e1056b3c79224caeb9bb2612db3eff5c",
      "title": "Sniper Rifle HDR (COD)"
    },
    "generator": "Sketchfab-15.24.0",
    "version": "2.0"
  },
  "bufferViews": [
    {
      "buffer": 0,
      "byteLength": 732396,
      "name": "floatBufferViews",
      "target": 34963
    },
    {
      "buffer": 0,
      "byteLength": 291848,
      "byteOffset": 732396,
      "byteStride": 8,
      "name": "floatBufferViews",
      "target": 34962
    },
    {
      "buffer": 0,
      "byteLength": 875544,
      "byteOffset": 1024244,
      "byteStride": 12,
      "name": "floatBufferViews",
      "target": 34962
    },
    {
      "buffer": 0,
      "byteLength": 583696,
      "byteOffset": 1899788,
      "byteStride": 16,
      "name": "floatBufferViews",
      "target": 34962
    }
  ],
  "buffers": [
    {
      "byteLength": 2483484,
      "uri": "scene.bin"
    }
  ],
  "extensionsUsed": [
    "KHR_materials_specular"
  ],
  "images": [
    {
      "uri": "textures/hdr1initialShadingGroup_baseColor.png"
    },
    {
      "uri": "textures/hdr1initialShadingGroup_metallicRoughness.png"
    },
    {
      "uri": "textures/hdr1initialShadingGroup_normal.png"
    }
  ],
  "materials": [
    {
      "doubleSided": true,
      "extensions": {
        "KHR_materials_specular": {
          "specularColorFactor": [
            1.0,
            1.0,
            1.0
          ],
          "specularFactor": 0.236191196011264
        }
      },
      "name": "hdr1initialShadingGroup",
      "normalTexture": {
        "index": 2
      },
      "pbrMetallicRoughness": {
        "baseColorTexture": {
          "index": 0
        },
        "metallicRoughnessTexture": {
          "index": 1
        }
      }
    }
  ],
  "meshes": [
    {
      "name": "Object_0",
      "primitives": [
        {
          "attributes": {
            "NORMAL": 1,
            "POSITION": 0,
            "TANGENT": 2,
            "TEXCOORD_0": 3
          },
          "indices": 4,
          "material": 0,
          "mode": 4
        }
      ]
    },
    {
      "name": "Object_1",
      "primitives": [
        {
          "attributes": {
            "NORMAL": 6,
            "POSITION": 5,
            "TANGENT": 7,
            "TEXCOORD_0": 8
          },
          "indices": 9,
          "material": 0,
          "mode": 4
        }
      ]
    },
    {
      "name": "Object_2",
      "primitives": [
        {
          "attributes": {
            "NORMAL": 11,
            "POSITION": 10,
            "TANGENT": 12,
            "TEXCOORD_0": 13
          },
          "indices": 14,
          "material": 0,
          "mode": 4
        }
      ]
    },
    {
      "name": "Object_3",
      "primitives": [
        {
          "attributes": {
            "NORMAL": 16,
            "POSITION": 15,
            "TANGENT": 17,
            "TEXCOORD_0": 18
          },
          "indices": 19,
          "material": 0,
          "mode": 4
        }
      ]
    }
  ],
  "nodes": [
    {
      "children": [
        1
      ],
      "matrix": [
        1.0,
        0.0,
        0.0,
        0.0,
        0.0,
        2.220446049250313e-16,
        -1.0,
        0.0,
        0.0,
        1.0,
        2.220446049250313e-16,
        0.0,
        0.0,
        0.0,
        0.0,
        1.0
      ],
      "name": "Sketchfab_model"
    },
    {
      "children": [
        2,
        3,
        4,
        5
      ],
      "name": "HdrObj.obj.cleaner.materialmerger.gles"
    },
    {
      "mesh": 0,
      "name": "Object_2"
    },
    {
      "mesh": 1,
      "name": "Object_3"
    },
    {
      "mesh": 2,
      "name": "Object_4"
    },
    {
      "mesh": 3,
      "name": "Object_5"
    }
  ],
  "samplers": [
    {
      "magFilter": 9729,
      "minFilter": 9987,
      "wrapS": 10497,
      "wrapT": 10497
    }
  ],
  "scene": 0,
  "scenes": [
    {
      "name": "Sketchfab_Scene",
      "nodes": [
        0
      ]
    }
  ],
  "textures": [
    {
      "sampler": 0,
      "source": 0
    },
    {
      "sampler": 0,
      "source": 1
    },
    {
      "sampler": 0,
      "source": 2
    }
  ]
}
